<svg width="25" height="26" viewBox="0 0 25 26" fill="none" xmlns="http://www.w3.org/2000/svg">
<path d="M11.5503 15.3249L11.5487 15.6182L15.4296 15.6403L15.4313 15.347L15.4174 15.6399C16.3241 15.684 17.1364 16.0845 17.7242 16.7071C18.3115 17.3301 18.6714 18.1714 18.6715 19.1005L18.6716 19.1155L18.961 19.1102L18.6716 19.1095C18.6669 21.0202 17.1363 22.5663 15.2515 22.5662H15.2366L15.2421 22.8595L15.2427 22.5662C14.3226 22.5637 13.491 22.1948 12.8771 21.595C12.2636 20.9949 11.8717 20.167 11.8344 19.245L11.5453 19.2571L11.8347 19.2575L11.8398 15.3253L11.5503 15.3249L11.2608 15.3244L11.2557 19.2624L11.256 19.2691C11.2993 20.3463 11.7588 21.3171 12.4751 22.017C13.191 22.7175 14.1674 23.1501 15.2412 23.1528H15.2447L15.2474 23.1527L15.2457 23.059L15.2463 23.1527H15.2474L15.2457 23.059L15.2463 23.1527H15.2515C17.4557 23.1526 19.2447 21.3453 19.2504 19.1109V19.1062V19.1049L19.176 19.1063L19.2504 19.1062V19.1049L19.176 19.1063L19.2504 19.1062V19.1005C19.2506 18.0162 18.8286 17.0283 18.1427 16.3018C17.4571 15.5748 16.5046 15.1053 15.4451 15.054L15.4383 15.0537L11.2612 15.03L11.2608 15.3244L11.5503 15.3249Z" fill="#FFDC00"/>
<path d="M11.5325 15.2273L11.534 14.9339L5.90804 14.9019L5.90646 15.1953L5.92023 14.9023C4.57149 14.8368 3.36233 14.2406 2.48829 13.3145C1.61463 12.388 1.07905 11.1354 1.07891 9.75358V9.74549L1.07896 9.74054C1.08575 6.89777 3.36284 4.59764 6.167 4.59788H6.17296H6.1766L6.18004 4.598C7.54854 4.6015 8.78665 5.15079 9.69947 6.04281C10.6118 6.93519 11.1952 8.16753 11.2506 9.53894L11.5398 9.52699L11.2503 9.5265L11.243 15.2268L11.5325 15.2273L11.8219 15.2276L11.8293 9.52155L11.8291 9.51503C11.7675 7.98825 11.1167 6.6131 10.1015 5.62077C9.08667 4.62794 7.70368 4.01515 6.18148 4.01141L6.18078 4.30465L6.18805 4.01153L6.167 4.01129C3.04347 4.01153 0.508007 6.57266 0.500048 9.73909L0.789503 9.73982L0.500095 9.73414L0.5 9.75358C0.499809 11.2907 1.09757 12.6898 2.06982 13.7198C3.04165 14.7503 4.391 15.4155 5.89259 15.4881L5.89822 15.4884L11.8214 15.5222L11.8219 15.2276L11.5325 15.2273Z" fill="#FFDC00"/>
<path d="M11.3573 8.69171L11.5029 8.43831L8.14446 6.45617L8.13862 6.45315C7.54751 6.13722 6.90886 5.98596 6.27887 5.98596C5.59267 5.98596 4.91625 6.16487 4.31766 6.50458C3.71911 6.84417 3.1981 7.34577 2.82645 7.9879C2.45382 8.63123 2.27589 9.33818 2.27602 10.0346C2.27602 10.7299 2.45261 11.4153 2.788 12.022C3.12326 12.6285 3.61834 13.1564 4.25217 13.5332C4.88702 13.9105 5.58462 14.0908 6.27184 14.0907C7.5885 14.0909 8.8726 13.4304 9.63243 12.2402L9.63612 12.2343L11.754 8.58656L11.5029 8.43831L11.3573 8.69171L11.1078 8.54298L9.13985 11.9323L9.38936 12.0809L9.14629 11.9216C8.49679 12.9395 7.39893 13.5038 6.27184 13.5041C5.68399 13.504 5.08968 13.3508 4.54517 13.0272C4.00158 12.704 3.58004 12.2541 3.2931 11.7352C3.0062 11.2166 2.85488 10.6292 2.85493 10.0346C2.85502 9.43886 3.00633 8.83646 3.32582 8.28463C3.64474 7.73402 4.08866 7.30702 4.60059 7.01632C5.11243 6.72574 5.69209 6.57255 6.27887 6.57255C6.81771 6.57255 7.36223 6.70136 7.86863 6.97202L8.00362 6.71258L7.8579 6.96598L11.2115 8.94511L11.3573 8.69171Z" fill="#FFDC00"/>
<path d="M11.4657 8.69486L11.3201 8.94825L16.187 11.8205L16.1922 11.8233C17.0301 12.271 17.9347 12.4852 18.8275 12.4852C19.7999 12.4851 20.7586 12.2315 21.607 11.7501C22.4552 11.2689 23.1931 10.5587 23.7201 9.64844C24.2483 8.73638 24.5002 7.73487 24.5001 6.74784C24.5 5.76263 24.2498 4.79093 23.7743 3.93138C23.2993 3.07184 22.5981 2.32408 21.6997 1.79013C20.7997 1.25509 19.8116 0.999879 18.8377 1C16.9715 0.999759 15.1518 1.93548 14.0754 3.62234L14.0722 3.62728L11.0688 8.80001L11.3201 8.94825L11.4657 8.69486L11.7152 8.84359L14.568 3.9303L14.3185 3.78169L14.5615 3.9408C15.5276 2.42634 17.1609 1.58683 18.8377 1.58647C19.7122 1.58671 20.597 1.81488 21.4068 2.29608C22.2149 2.77655 22.8425 3.44632 23.2694 4.2181C23.6961 4.98976 23.9211 5.86331 23.9211 6.74784C23.921 7.63431 23.6958 8.53104 23.2208 9.35159C22.7465 10.1703 22.0856 10.8061 21.324 11.2384C20.5625 11.6707 19.7004 11.8986 18.8275 11.8986C18.0259 11.8985 17.2154 11.7068 16.4624 11.3045L16.3274 11.5639L16.473 11.3104L11.6115 8.44134L11.4657 8.69486Z" fill="#FFDC00"/>
<path d="M17.3381 11.7654L17.5936 11.6278L15.7724 8.15547L15.5168 8.2931L15.7779 8.16658C15.5511 7.68634 15.4434 7.17834 15.4433 6.67626C15.4433 6.05816 15.6071 5.44911 15.9149 4.91745C16.2227 4.38567 16.6731 3.93127 17.2495 3.61848C17.7644 3.33925 18.3159 3.20742 18.8608 3.20742C19.471 3.20729 20.0721 3.37341 20.597 3.68524C21.122 3.99718 21.5706 4.45364 21.8793 5.03781C22.1548 5.55921 22.2849 6.11792 22.2849 6.66974C22.2846 7.8591 21.6792 9.01091 20.6097 9.65292L20.7573 9.90523L20.6203 9.64688L17.201 11.5071L17.3381 11.7654L17.475 12.0239L20.9002 10.1603L20.9049 10.1575C22.1557 9.40616 22.8641 8.0595 22.8638 6.66974C22.8638 6.02448 22.711 5.36871 22.3897 4.76087C22.0298 4.07964 21.5035 3.54351 20.8897 3.17917C20.276 2.81471 19.5745 2.62083 18.8608 2.62083C18.2237 2.62071 17.5764 2.77571 16.9763 3.1013C16.3041 3.46588 15.7749 3.99911 15.4154 4.62084C15.0557 5.24268 14.8645 5.95313 14.8645 6.67626C14.8643 7.26345 14.9909 7.8591 15.2556 8.41973L15.2581 8.42493L17.2188 12.1631L17.475 12.0239L17.3381 11.7654Z" fill="#FFDC00"/>
<path d="M17.3403 11.8754L17.0847 12.013L19.7249 17.0467L19.9806 16.9091L19.7194 17.0356C20.0566 17.7498 20.217 18.5059 20.2171 19.2528C20.2171 20.1725 19.9733 21.0781 19.5156 21.8692C19.0577 22.6603 18.3871 23.3367 17.53 23.802C16.7645 24.217 15.9433 24.4133 15.1328 24.4134C14.2249 24.4134 13.3309 24.1664 12.55 23.7026C11.769 23.2387 11.1014 22.559 10.6423 21.6905C10.2325 20.9151 10.0388 20.0832 10.0388 19.2623C10.039 17.4931 10.9397 15.7795 12.5312 14.8243L12.3836 14.572L12.5206 14.8305L17.4773 12.1338L17.3403 11.8754L17.2034 11.6171L12.2417 14.3164L12.2361 14.3197C10.4633 15.3842 9.4596 17.2927 9.45983 19.2623C9.45971 20.1768 9.67633 21.1056 10.1318 21.9674C10.6421 22.933 11.3876 23.6922 12.2573 24.2086C13.1271 24.7251 14.1213 25 15.1328 25C16.0356 25.0001 16.9526 24.7805 17.8032 24.319C18.7562 23.802 19.5055 23.0468 20.0151 22.1658C20.5247 21.2847 20.7959 20.2775 20.7959 19.2528C20.796 18.4207 20.6168 17.577 20.2416 16.7825L20.2391 16.7773L17.4594 11.4777L17.2034 11.6171L17.3403 11.8754Z" fill="#FFDC00"/>
<path d="M11.5503 15.3249L11.5487 15.6182L15.4296 15.6403L15.4313 15.347L15.4174 15.6399C16.3241 15.684 17.1364 16.0845 17.7242 16.7071C18.3115 17.3301 18.6714 18.1714 18.6715 19.1005L18.6716 19.1155L18.961 19.1102L18.6716 19.1095C18.6669 21.0202 17.1363 22.5663 15.2515 22.5662H15.2366L15.2421 22.8595L15.2427 22.5662C14.3226 22.5637 13.491 22.1948 12.8771 21.595C12.2636 20.9949 11.8717 20.167 11.8344 19.245L11.5453 19.2571L11.8347 19.2575L11.8398 15.3253L11.5503 15.3249ZM11.5503 15.3249L11.2608 15.3244M11.2608 15.3244L11.2557 19.2624L11.256 19.2691C11.2993 20.3463 11.7588 21.3171 12.4751 22.017C13.191 22.7175 14.1674 23.1501 15.2412 23.1528H15.2447L15.2474 23.1527M11.2608 15.3244L11.2612 15.03L15.4383 15.0537L15.4451 15.054C16.5046 15.1053 17.4571 15.5748 18.1427 16.3018C18.8286 17.0283 19.2506 18.0162 19.2504 19.1005V19.1062M15.2474 23.1527L15.2457 23.059L15.2463 23.1527M15.2474 23.1527H15.2463M15.2463 23.1527H15.2515C17.4557 23.1526 19.2447 21.3453 19.2504 19.1109V19.1062M19.2504 19.1062V19.1049L19.176 19.1063L19.2504 19.1062ZM11.5325 15.2273L11.534 14.9339L5.90804 14.9019L5.90646 15.1953L5.92023 14.9023C4.57149 14.8368 3.36233 14.2406 2.48829 13.3145C1.61463 12.388 1.07905 11.1354 1.07891 9.75358V9.74549L1.07896 9.74054C1.08575 6.89777 3.36284 4.59764 6.167 4.59788H6.17296M11.5325 15.2273L11.243 15.2268L11.2503 9.5265L11.5398 9.52699L11.2506 9.53894C11.1952 8.16753 10.6118 6.93519 9.69947 6.04281C8.78665 5.15079 7.54854 4.6015 6.18004 4.598L6.1766 4.59788H6.17296M11.5325 15.2273L11.8219 15.2276M6.17296 4.59788L6.17427 4.56529M11.8219 15.2276L11.8293 9.52155L11.8291 9.51503C11.7675 7.98825 11.1167 6.6131 10.1015 5.62077C9.08667 4.62794 7.70368 4.01515 6.18148 4.01141L6.18078 4.30465L6.18805 4.01153L6.167 4.01129C3.04347 4.01153 0.508007 6.57266 0.500048 9.73909L0.789503 9.73982L0.500095 9.73414L0.5 9.75358C0.499809 11.2907 1.09757 12.6898 2.06982 13.7198C3.04165 14.7503 4.391 15.4155 5.89259 15.4881L5.89822 15.4884L11.8214 15.5222L11.8219 15.2276ZM11.3573 8.69171L11.5029 8.43831M11.3573 8.69171L11.1078 8.54298L9.13985 11.9323L9.38936 12.0809L9.14629 11.9216C8.49679 12.9395 7.39893 13.5038 6.27184 13.5041C5.68399 13.504 5.08968 13.3508 4.54517 13.0272C4.00158 12.704 3.58004 12.2541 3.2931 11.7352C3.0062 11.2166 2.85488 10.6292 2.85493 10.0346C2.85502 9.43886 3.00633 8.83646 3.32582 8.28463C3.64474 7.73402 4.08866 7.30702 4.60059 7.01632C5.11243 6.72574 5.69209 6.57255 6.27887 6.57255C6.81771 6.57255 7.36223 6.70136 7.86863 6.97202L8.00362 6.71258L7.8579 6.96598L11.2115 8.94511L11.3573 8.69171ZM11.5029 8.43831L8.14446 6.45617L8.13862 6.45315C7.54751 6.13722 6.90886 5.98596 6.27887 5.98596C5.59267 5.98596 4.91625 6.16487 4.31766 6.50458C3.71911 6.84417 3.1981 7.34577 2.82645 7.9879C2.45382 8.63123 2.27589 9.33818 2.27602 10.0346C2.27602 10.7299 2.45261 11.4153 2.788 12.022C3.12326 12.6285 3.61834 13.1564 4.25217 13.5332C4.88702 13.9105 5.58462 14.0908 6.27184 14.0907C7.5885 14.0909 8.8726 13.4304 9.63243 12.2402L9.63612 12.2343L11.754 8.58656L11.5029 8.43831ZM11.4657 8.69486L11.3201 8.94825M11.4657 8.69486L11.7152 8.84359L14.568 3.9303L14.3185 3.78169L14.5615 3.9408C15.5276 2.42634 17.1609 1.58683 18.8377 1.58647C19.7122 1.58671 20.597 1.81488 21.4068 2.29608C22.2149 2.77655 22.8425 3.44632 23.2694 4.2181C23.6961 4.98976 23.9211 5.86331 23.9211 6.74784C23.921 7.63431 23.6958 8.53104 23.2208 9.35159C22.7465 10.1703 22.0856 10.8061 21.324 11.2384C20.5625 11.6707 19.7004 11.8986 18.8275 11.8986C18.0259 11.8985 17.2154 11.7068 16.4624 11.3045L16.3274 11.5639L16.473 11.3104L11.6115 8.44134L11.4657 8.69486ZM11.3201 8.94825L16.187 11.8205L16.1922 11.8233C17.0301 12.271 17.9347 12.4852 18.8275 12.4852C19.7999 12.4851 20.7586 12.2315 21.607 11.7501C22.4552 11.2689 23.1931 10.5587 23.7201 9.64844C24.2483 8.73638 24.5002 7.73487 24.5001 6.74784C24.5 5.76263 24.2498 4.79093 23.7743 3.93138C23.2993 3.07184 22.5981 2.32408 21.6997 1.79013C20.7997 1.25509 19.8116 0.999879 18.8377 1C16.9715 0.999759 15.1518 1.93548 14.0754 3.62234L14.0722 3.62728L11.0688 8.80001L11.3201 8.94825ZM17.3381 11.7654L17.5936 11.6278L15.7724 8.15547L15.5168 8.2931L15.7779 8.16658C15.5511 7.68634 15.4434 7.17834 15.4433 6.67626C15.4433 6.05816 15.6071 5.44911 15.9149 4.91745C16.2227 4.38567 16.6731 3.93127 17.2495 3.61848C17.7644 3.33925 18.3159 3.20742 18.8608 3.20742C19.471 3.20729 20.0721 3.37341 20.597 3.68524C21.122 3.99718 21.5706 4.45364 21.8793 5.03781C22.1548 5.55921 22.2849 6.11792 22.2849 6.66974C22.2846 7.8591 21.6792 9.01091 20.6097 9.65292L20.7573 9.90523L20.6203 9.64688L17.201 11.5071L17.3381 11.7654ZM17.3381 11.7654L17.475 12.0239M17.475 12.0239L20.9002 10.1603L20.9049 10.1575C22.1557 9.40616 22.8641 8.0595 22.8638 6.66974C22.8638 6.02448 22.711 5.36871 22.3897 4.76087C22.0298 4.07964 21.5035 3.54351 20.8897 3.17917C20.276 2.81471 19.5745 2.62083 18.8608 2.62083C18.2237 2.62071 17.5764 2.77571 16.9763 3.1013C16.3041 3.46588 15.7749 3.99911 15.4154 4.62084C15.0557 5.24268 14.8645 5.95313 14.8645 6.67626C14.8643 7.26345 14.9909 7.8591 15.2556 8.41973L15.2581 8.42493L17.2188 12.1631L17.475 12.0239ZM17.3403 11.8754L17.0847 12.013L19.7249 17.0467L19.9806 16.9091L19.7194 17.0356C20.0566 17.7498 20.217 18.5059 20.2171 19.2528C20.2171 20.1725 19.9733 21.0781 19.5156 21.8692C19.0577 22.6603 18.3871 23.3367 17.53 23.802C16.7645 24.217 15.9433 24.4133 15.1328 24.4134C14.2249 24.4134 13.3309 24.1664 12.55 23.7026C11.769 23.2387 11.1014 22.559 10.6423 21.6905C10.2325 20.9151 10.0388 20.0832 10.0388 19.2623C10.039 17.4931 10.9397 15.7795 12.5312 14.8243L12.3836 14.572L12.5206 14.8305L17.4773 12.1338L17.3403 11.8754ZM17.3403 11.8754L17.2034 11.6171M17.2034 11.6171L12.2417 14.3164L12.2361 14.3197C10.4633 15.3842 9.4596 17.2927 9.45983 19.2623C9.45971 20.1768 9.67633 21.1056 10.1318 21.9674C10.6421 22.933 11.3876 23.6922 12.2573 24.2086C13.1271 24.7251 14.1213 25 15.1328 25C16.0356 25.0001 16.9526 24.7805 17.8032 24.319C18.7562 23.802 19.5055 23.0468 20.0151 22.1658C20.5247 21.2847 20.7959 20.2775 20.7959 19.2528C20.796 18.4207 20.6168 17.577 20.2416 16.7825L20.2391 16.7773L17.4594 11.4777L17.2034 11.6171Z" stroke="#FFDC00" stroke-width="0.214286"/>
</svg>
